<svg width="42" height="42" viewBox="0 0 42 42" fill="none" xmlns="http://www.w3.org/2000/svg">
<g id="Group 1701">
<rect id="Rectangle 100" width="42" height="42" rx="8" fill="#EFFCFA"/>
<g id="Group">
<path id="Vector" d="M25.5984 33.8333C25.4761 33.6702 25.2926 33.5275 25.2111 33.344C24.946 32.7324 24.7218 32.1004 24.4568 31.4481C24.3344 31.4888 24.2529 31.5296 24.151 31.5704C22.9278 32.0393 21.7046 32.4878 20.3794 32.5489C19.5436 32.5897 18.7077 32.4878 17.8923 32.4062C17.3826 32.3655 16.8933 32.2431 16.3837 32.182C16.2817 32.1616 16.1594 32.2024 16.0983 32.2635C14.4062 33.6498 12.2044 33.3848 10.8589 31.6315C10.7978 31.55 10.6551 31.4888 10.5531 31.4481C9.88037 31.2238 9.26877 30.8976 8.73872 30.4084C8.35138 30.0414 8.14751 29.6133 8.1679 29.0425C8.24944 26.5145 8.79988 24.0885 9.6765 21.7441C10.0027 20.8878 10.39 20.052 10.757 19.2161C10.8793 18.9103 11.1239 18.8084 11.3686 18.89C11.6948 18.9919 11.8171 19.2977 11.654 19.6443C11.3482 20.3374 11.022 21.0305 10.757 21.7441C9.90075 23.9866 9.32993 26.2699 9.20761 28.6755C9.16684 29.5113 9.45225 29.9598 10.2677 30.2453C10.1046 28.7978 10.5531 27.595 11.7559 26.7592C12.9791 25.9233 14.2635 25.9437 15.5478 26.6368C15.9556 26.2495 16.0371 25.7602 15.9759 25.2302C15.7517 23.4769 15.6498 21.7033 15.7313 19.9297C15.7925 18.4618 15.9556 17.0144 16.4041 15.6077C16.5875 15.0369 16.8322 14.5068 17.0768 13.9564C17.3622 13.3244 17.8515 12.9779 18.565 12.8555C19.5436 12.6924 20.5018 12.7536 21.4599 13.039C21.8269 13.1409 22.1938 13.2429 22.5608 13.304C23.0093 13.3652 23.2539 13.1206 23.1724 12.6924C23.152 12.5905 23.0297 12.4682 22.9278 12.4274C22.1735 12.2439 21.7046 11.775 21.4599 11.0615C21.3376 10.7353 21.4599 10.4703 21.7453 10.3684C22.0308 10.2664 22.2754 10.4091 22.3977 10.7353C22.4589 10.8984 22.5404 11.0615 22.6627 11.1838C22.9278 11.4896 23.1724 11.4896 23.4782 11.2246C23.6005 11.1227 23.6413 11.0004 23.6005 10.8577C23.3355 10.1033 22.8054 9.5733 22.1123 9.22673C22.0511 9.18595 21.9696 9.18595 21.888 9.18595C19.6048 9.20634 17.6273 10.0014 15.9759 11.5916C15.8332 11.7343 15.6701 11.8566 15.5071 11.9585C15.1605 12.1828 14.9566 12.4682 14.8139 12.8759C14.5081 13.7933 14.1412 14.6903 13.7946 15.5873C13.6723 15.8727 13.3869 15.9543 13.1218 15.832C12.8772 15.7096 12.7753 15.4446 12.8976 15.1388C13.2238 14.303 13.5907 13.4671 13.8557 12.6109C14.0188 12.0808 14.2635 11.6731 14.6712 11.3265C15.1197 10.9596 15.5478 10.613 15.9963 10.2664C17.7292 8.819 19.7271 8.16663 21.9492 8.16663C22.2346 8.16663 22.5608 8.28895 22.8054 8.43165C23.4986 8.83938 24.0286 9.41021 24.3956 10.1237C24.8033 10.9392 24.7218 11.4081 24.0898 11.9993C24.1306 12.3255 24.2325 12.6313 24.2121 12.9167C24.1306 13.8545 23.2539 14.4865 22.2958 14.2826C21.623 14.1399 20.9503 13.936 20.2775 13.7933C19.7475 13.6914 19.2174 13.7322 18.6874 13.8341C18.3408 13.8952 18.0961 14.0991 17.9738 14.4049C17.7088 15.0777 17.403 15.7504 17.2195 16.4436C16.771 18.2172 16.6895 20.0112 16.7506 21.8256C16.771 22.5595 16.8322 23.2731 16.873 24.0477C16.9749 24.007 17.036 23.9866 17.0972 23.9458C18.4835 23.1711 19.9309 22.8653 21.5007 23.2527C21.5822 23.2731 21.725 23.2119 21.8065 23.1507C22.8258 22.3761 23.9675 21.8052 25.2314 21.6014C26.74 21.3363 28.1671 21.6217 29.5126 22.3761C29.7165 22.4984 29.8796 22.4984 30.0834 22.4168C30.9397 22.0906 31.7551 21.6421 32.4075 20.9694C32.5706 20.8063 32.7133 20.6228 32.856 20.4393C33.2026 19.9501 33.5288 19.9501 33.8753 20.4393C33.8753 24.904 33.8753 29.3686 33.8753 33.8333C31.1232 33.8333 28.371 33.8333 25.5984 33.8333ZM16.8933 31.2442C17.3826 31.3257 17.8515 31.3869 18.3204 31.4481C19.1359 31.55 19.9717 31.6315 20.7872 31.4888C22.0511 31.285 23.2539 30.8569 24.4364 30.3472C24.8645 30.1637 25.0887 30.2656 25.2518 30.6938C25.4965 31.3257 25.7615 31.9577 25.9857 32.5897C26.0469 32.7732 26.1284 32.8344 26.3323 32.8344C28.4321 32.8344 30.5116 32.8344 32.6114 32.8344C32.6929 32.8344 32.7745 32.8344 32.856 32.8344C32.856 29.2055 32.856 25.5971 32.856 21.9683C32.7948 22.0091 32.7745 22.0295 32.7337 22.0499C31.9998 22.6615 31.1639 23.0896 30.2669 23.4158C29.8592 23.5789 29.5126 23.5381 29.1253 23.3138C27.9429 22.5799 26.6381 22.3149 25.2518 22.6003C24.0898 22.8246 23.0705 23.3546 22.1938 24.1293C21.9492 24.3332 21.725 24.3943 21.4192 24.2924C21.1337 24.1905 20.8279 24.1293 20.5221 24.1089C19.2786 24.007 18.1777 24.4147 17.1584 25.0875C17.0972 25.1282 17.036 25.2506 17.036 25.3525C17.0157 25.5767 17.0157 25.7806 16.9953 26.0049C16.9341 26.4941 16.7099 26.9223 16.3633 27.2892C17.3622 28.492 17.5253 29.7968 16.8933 31.2442ZM16.2614 29.6133C16.2614 28.2474 15.1401 27.1057 13.7538 27.1057C12.3675 27.1057 11.2463 28.227 11.2463 29.6133C11.2463 30.9996 12.3675 32.1412 13.7742 32.1208C15.1401 32.1208 16.2614 30.9996 16.2614 29.6133Z" fill="#00B294"/>
<path id="Vector_2" d="M13.305 23.2119C13.0808 23.1508 12.8565 23.0896 12.6527 23.0284C12.2857 22.9265 12.143 22.6819 12.2449 22.3149C12.3876 21.8256 12.5303 21.3567 12.673 20.8879C12.775 20.5617 13.0196 20.3986 13.3254 20.5005C13.6108 20.5821 13.7331 20.8471 13.6312 21.1937C13.5293 21.5198 13.4274 21.846 13.3254 22.1926C13.5497 22.2538 13.7331 22.3149 13.937 22.3557C14.3244 22.4576 14.4467 22.6819 14.3651 23.0692C14.2428 23.5789 14.1205 24.0885 13.9982 24.5982C13.9166 24.9448 13.672 25.0875 13.3866 25.0263C13.1012 24.9652 12.9585 24.7001 13.04 24.3536C13.1216 23.9866 13.2235 23.6197 13.305 23.2119Z" fill="#00B294"/>
<path id="Vector_3" d="M12.3067 17.8501C12.0212 17.8501 11.8174 17.6463 11.8174 17.3609C11.8174 17.0958 12.0212 16.8512 12.3067 16.8512C12.5717 16.8512 12.8163 17.0754 12.8163 17.3609C12.7959 17.6259 12.5717 17.8501 12.3067 17.8501Z" fill="#00B294"/>
<path id="Vector_4" d="M20.2573 28.5328C20.298 28.3085 20.3184 28.0843 20.3592 27.8804C20.4408 27.4727 20.6446 27.3096 21.0523 27.3911C21.5416 27.4727 22.0309 27.5746 22.5202 27.6765C22.8668 27.7377 23.0298 27.9823 22.9687 28.2881C22.9075 28.5735 22.6629 28.7162 22.3163 28.6551C21.9901 28.5939 21.6639 28.5328 21.297 28.4716C21.2562 28.6755 21.2358 28.8793 21.1951 29.0628C21.1339 29.4705 20.9504 29.6336 20.5427 29.5929C20.0126 29.5317 19.4622 29.4705 18.9321 29.389C18.6263 29.3482 18.4633 29.124 18.4836 28.8182C18.5244 28.5328 18.7487 28.3697 19.0545 28.3901C19.4418 28.4104 19.8292 28.4716 20.2573 28.5328Z" fill="#00B294"/>
<path id="Vector_5" d="M13.7742 31.1219C12.9588 31.1219 12.2656 30.4492 12.2656 29.6337C12.2656 28.7979 12.9384 28.1047 13.7742 28.1047C14.5897 28.1047 15.2828 28.7775 15.2828 29.6133C15.2624 30.4492 14.5897 31.1219 13.7742 31.1219ZM13.7742 30.123C14.0393 30.123 14.2635 29.8988 14.2635 29.6337C14.2635 29.3483 14.0393 29.1241 13.7538 29.1241C13.4888 29.1241 13.2646 29.3483 13.2646 29.6133C13.2646 29.8988 13.4888 30.123 13.7742 30.123Z" fill="#00B294"/>
</g>
</g>
</svg>
