<svg width="42" height="42" viewBox="0 0 42 42" fill="none" xmlns="http://www.w3.org/2000/svg">
<g id="Group 1693">
<rect id="Rectangle 102" width="42" height="42" rx="8" fill="#EFFCFA"/>
<g id="Group">
<path id="Vector" d="M12.8955 35.4375C12.6436 35.3 12.5291 35.0938 12.552 34.8188C12.5749 34.3604 12.5749 33.925 12.552 33.4667C12.552 33.3521 12.5291 33.2375 12.4604 33.1688C10.9493 31.3583 10.0105 29.2729 9.32366 27.05C8.31623 23.8417 7.81251 20.5646 7.8812 17.2188C7.90409 16.5771 7.97278 15.9354 8.06437 15.3167C8.29333 13.8042 9.23207 12.7729 10.4914 12.0167C11.7965 11.2146 13.2389 10.7562 14.6585 10.2979C15.1851 10.1375 15.6888 9.95417 16.1925 9.725C17.0626 9.35833 17.4518 8.69375 17.406 7.73125C17.406 7.54792 17.3831 7.36458 17.3602 7.20417C17.3144 6.79167 17.4976 6.5625 17.9097 6.5625C18.6424 6.5625 19.3522 6.5625 20.0849 6.5625C21.2068 6.5625 22.3287 6.5625 23.4735 6.5625C23.9543 6.5625 24.0917 6.76875 24.0688 7.25C24.0459 7.6625 24.0459 8.075 24.1146 8.4875C24.2291 9.0375 24.5496 9.45 25.0763 9.65625C26.0837 10.0458 27.1369 10.3667 28.1444 10.7562C29.0602 11.1229 29.9532 11.4896 30.8003 11.9479C32.5404 12.8646 33.4105 14.3542 33.5021 16.325C33.731 21 32.9526 25.4917 31.0751 29.7771C30.5485 30.9917 29.8616 32.1146 29.0144 33.1229C28.9457 33.2146 28.8999 33.3521 28.8999 33.4667C28.8999 33.925 28.8999 34.3604 28.8999 34.8188C28.8999 35.0938 28.8083 35.3 28.5565 35.4375C23.3362 35.4375 18.1158 35.4375 12.8955 35.4375ZM18.4135 7.54792C18.4135 7.59375 18.4135 7.59375 18.4135 7.61667C18.4135 7.70833 18.4135 7.77708 18.4135 7.86875C18.3677 9.08333 17.8868 10.0458 16.742 10.55C15.8949 10.9167 15.0248 11.1917 14.1548 11.4896C13.01 11.8792 11.8651 12.2917 10.8119 12.9792C9.75869 13.6667 9.0718 14.5604 8.95732 15.8438C8.91153 16.4167 8.86573 16.9667 8.84284 17.5396C8.81994 19.8542 9.0947 22.1229 9.57552 24.3917C10.0334 26.4542 10.6745 28.4708 11.682 30.35C11.9796 30.9229 12.346 31.45 12.7123 32.0688C12.8497 31.5875 12.9642 31.1979 13.1015 30.8083C13.9945 28.15 13.9258 25.5375 12.9413 22.925C12.3918 21.4583 11.9338 19.9458 11.5904 18.3875C11.5446 18.1583 11.5675 17.9521 11.7507 17.8146C12.0483 17.5854 12.4146 17.7688 12.5291 18.1813C12.8726 19.7396 13.3534 21.275 13.9258 22.7875C14.773 25.0563 14.9332 27.3938 14.3837 29.7771C14.2006 30.625 13.9029 31.4729 13.6739 32.3208C13.4908 33.0312 13.4221 33.7875 13.4679 34.5208C18.299 34.5208 23.1072 34.5208 27.8925 34.5208C27.8925 34.475 27.9154 34.4521 27.9154 34.4292C27.9154 34.3146 27.9154 34.2229 27.9154 34.1083C27.8925 33.0771 27.6864 32.0688 27.3659 31.0833C26.4729 28.4021 26.45 25.7208 27.3888 23.0625C27.9383 21.4583 28.5107 19.8313 28.877 18.1583C28.9457 17.8146 29.1747 17.6313 29.4494 17.6771C29.7471 17.7458 29.9074 17.9979 29.8158 18.3646C29.4494 19.6938 29.106 21.0229 28.671 22.3062C28.2588 23.5437 27.8467 24.7583 27.7322 26.0646C27.5262 28.1271 28.007 30.075 28.6939 32C28.7397 31.9312 28.8083 31.8625 28.8541 31.7938C29.541 30.8313 30.0905 29.7771 30.5485 28.6771C31.4185 26.5688 31.9451 24.3688 32.2657 22.1229C32.5633 20.1063 32.7007 18.0667 32.5175 16.0271C32.4031 14.8354 31.8993 13.8958 30.9148 13.1854C29.9074 12.475 28.7855 12.0396 27.6406 11.6271C26.6561 11.2833 25.6487 10.9396 24.687 10.55C23.8399 10.2062 23.359 9.51875 23.153 8.67083C23.0614 8.32708 23.0614 7.96042 23.0156 7.57083C21.4816 7.54792 19.9475 7.54792 18.4135 7.54792Z" fill="#00B294"/>
<path id="Vector_2" d="M21.2067 20.4958C21.2067 21.7333 21.2067 22.9479 21.2067 24.1854C21.2067 24.3688 21.2525 24.4833 21.4356 24.575C22.008 24.8729 22.2828 25.5604 22.1225 26.1792C21.9622 26.7979 21.3898 27.2563 20.7258 27.2563C20.0848 27.2563 19.5124 26.8208 19.3292 26.2021C19.1689 25.5833 19.4208 24.8958 19.9932 24.575C20.1763 24.4833 20.245 24.3688 20.2221 24.1625C20.2221 21.8021 20.2221 19.4417 20.2221 17.0583C20.2221 16.9896 20.2221 16.8979 20.2221 16.8292C20.2221 16.3937 20.3824 16.1875 20.703 16.1875C21.0235 16.1875 21.1838 16.3937 21.1838 16.8292C21.1838 17.5625 21.1838 18.2729 21.1838 19.0063C21.2067 19.4875 21.2067 19.9917 21.2067 20.4958ZM21.2067 25.8125C21.2067 25.5375 21.0006 25.3313 20.7258 25.3313C20.474 25.3313 20.2679 25.5375 20.245 25.7896C20.245 26.0646 20.4511 26.2938 20.703 26.2938C20.9777 26.2938 21.1838 26.0875 21.2067 25.8125Z" fill="#00B294"/>
<path id="Vector_3" d="M15.437 25.7895C15.4828 24.3686 15.9636 23.1311 16.9482 22.0999C17.1313 21.9166 17.3374 21.8478 17.5664 21.9853C17.7724 22.0999 17.864 22.2832 17.7953 22.5124C17.7724 22.6041 17.7037 22.7186 17.635 22.7874C16.0094 24.5978 16.0094 27.0041 17.6122 28.7916C17.864 29.0666 17.864 29.3645 17.6579 29.5478C17.4519 29.7311 17.1542 29.7082 16.9253 29.4332C15.9178 28.4249 15.4599 27.2103 15.437 25.7895Z" fill="#00B294"/>
<path id="Vector_4" d="M26.0151 25.8126C25.9922 27.2105 25.5113 28.448 24.5497 29.4793C24.2978 29.7313 24.0231 29.7772 23.817 29.5938C23.5881 29.3876 23.611 29.1126 23.8628 28.8376C25.4655 27.0501 25.4884 24.6209 23.8857 22.8563C23.6339 22.5813 23.611 22.2834 23.8399 22.1001C24.0689 21.8939 24.3436 21.9397 24.5955 22.2147C25.5113 23.2001 25.9922 24.4147 26.0151 25.8126Z" fill="#00B294"/>
<path id="Vector_5" d="M17.8412 15.6146C17.8412 15.0417 17.8412 14.4688 17.8412 13.8959C17.8412 13.5063 18.0244 13.3 18.3221 13.3C18.6197 13.3 18.8029 13.5292 18.8029 13.873C18.8029 15.1563 18.8029 16.4625 18.7571 17.7459C18.7113 18.8688 18.0931 19.648 17.0857 20.1292C16.788 20.2667 16.4675 20.3813 16.124 20.473C15.7806 20.5646 15.5287 20.4271 15.46 20.1521C15.3913 19.8771 15.5516 19.648 15.8722 19.5563C16.0095 19.5105 16.1698 19.4875 16.3072 19.4188C17.4062 19.0292 17.8412 18.4334 17.8641 17.2646C17.8412 16.7146 17.8412 16.1646 17.8412 15.6146Z" fill="#00B294"/>
<path id="Vector_6" d="M23.634 15.6146C23.634 16.3021 23.6111 16.9667 23.634 17.6313C23.6798 18.4563 24.1377 18.9833 24.8704 19.2813C25.0993 19.3729 25.3283 19.4417 25.5573 19.5104C25.9007 19.625 26.061 19.8542 25.9694 20.1292C25.8778 20.4042 25.626 20.5417 25.2825 20.4271C25.0078 20.3583 24.733 20.2667 24.4582 20.1521C23.2447 19.6479 22.6723 18.6854 22.6265 17.4021C22.6037 16.2104 22.6037 14.9958 22.6265 13.8042C22.6265 13.4833 22.8326 13.2771 23.1074 13.2771C23.405 13.2771 23.5882 13.4833 23.5882 13.8271C23.5882 14.4229 23.5882 15.0188 23.5882 15.6146C23.6111 15.6146 23.634 15.6146 23.634 15.6146Z" fill="#00B294"/>
<path id="Vector_7" d="M18.024 31.7708C17.8408 31.4958 17.6576 31.2437 17.4974 30.9916C17.2226 30.5791 17.36 30.2583 17.8179 30.1437C18.3903 30.0062 18.9627 29.8458 19.5351 29.7083C19.9015 29.6166 20.1533 29.7312 20.222 30.0291C20.2907 30.3271 20.1304 30.5333 19.7412 30.6479C19.3749 30.7396 19.0085 30.8312 18.5964 30.9458C18.7796 31.2208 18.9627 31.4958 19.123 31.7479C19.3749 32.1375 19.2375 32.4583 18.8024 32.5729C18.23 32.7104 17.6576 32.8708 17.0852 33.0083C16.7189 33.1 16.467 32.9625 16.3983 32.6646C16.3297 32.3896 16.4899 32.1604 16.8563 32.0687C17.2226 31.9541 17.6118 31.8625 18.024 31.7708Z" fill="#00B294"/>
<path id="Vector_8" d="M23.4275 31.7709C23.8397 31.8855 24.206 31.9772 24.5724 32.0689C24.9158 32.1605 25.099 32.3897 25.0303 32.6647C24.9616 32.9626 24.7097 33.1001 24.3434 33.0084C23.771 32.8709 23.1986 32.7334 22.6262 32.573C22.1912 32.4584 22.0538 32.1376 22.3056 31.748C22.4659 31.4959 22.6491 31.2439 22.8322 30.9459C22.4201 30.8314 22.0309 30.7397 21.6416 30.648C21.2982 30.5564 21.1379 30.3272 21.2295 30.0293C21.2982 29.7772 21.5043 29.6397 21.8019 29.7084C22.443 29.8459 23.107 30.0063 23.7481 30.1897C24.0915 30.2814 24.206 30.6022 24 30.923C23.9084 31.0605 23.8168 31.198 23.7252 31.3355C23.6336 31.473 23.542 31.6105 23.4275 31.7709Z" fill="#00B294"/>
<path id="Vector_9" d="M24.0918 25.8125C24.0689 26.7063 23.7713 27.4854 23.1531 28.1271C22.9241 28.3792 22.6494 28.4021 22.4433 28.1959C22.2372 28.0125 22.2372 27.7146 22.4662 27.4625C23.3592 26.4084 23.382 25.1938 22.4891 24.1396C22.2601 23.8646 22.2601 23.5896 22.4662 23.3834C22.6723 23.2 22.9699 23.2459 23.1989 23.4979C23.7942 24.1854 24.0689 24.9417 24.0918 25.8125Z" fill="#00B294"/>
<path id="Vector_10" d="M17.3604 25.8126C17.3832 24.9188 17.6809 24.1396 18.2991 23.498C18.5281 23.2688 18.8257 23.2459 19.0089 23.4292C19.2149 23.6126 19.2149 23.9105 19.0089 24.1396C18.093 25.0792 18.1159 26.5688 19.0089 27.5084C19.2378 27.7376 19.2149 28.0584 19.0089 28.2417C18.8028 28.4251 18.5281 28.4021 18.322 28.173C17.6809 27.4855 17.3832 26.7063 17.3604 25.8126Z" fill="#00B294"/>
</g>
</g>
</svg>
