<svg width="42" height="42" viewBox="0 0 42 42" fill="none" xmlns="http://www.w3.org/2000/svg">
<g id="Group 1707">
<rect id="Rectangle 109" width="42" height="42" rx="8" fill="#EFFCFA"/>
<g id="Group">
<path id="Vector" d="M13.419 35.4375C13.2127 35.3917 13.0293 35.3458 12.823 35.3C11.1726 34.8186 10.3245 33.6496 9.98065 32.045C9.82019 31.2657 9.84312 30.5092 10.0953 29.7757C10.2099 29.4319 10.462 29.2943 10.7371 29.386C11.0122 29.4777 11.1268 29.7299 11.0122 30.0737C10.6912 31.0823 10.8288 32.0221 11.3101 32.939C11.9749 34.2456 13.3961 34.7728 14.9319 34.3373C15.7112 34.108 16.4906 33.8559 17.2929 33.6954C18.7141 33.3974 20.1582 33.4433 21.5793 33.6267C23.161 33.833 24.7426 34.108 26.3243 34.2914C27.8142 34.4519 29.3042 34.5206 30.7483 33.9934C31.0921 33.8788 31.4359 33.7184 31.7569 33.5579C32.2611 33.3058 32.5133 32.8015 32.4216 32.2972C32.307 31.77 31.8715 31.4032 31.2755 31.4032C30.1294 31.4032 28.9833 31.3115 27.8601 31.1052C25.4991 30.6697 23.3673 29.7528 21.4647 28.2858C19.7226 26.9334 19.012 25.1454 19.2183 22.9678C19.4017 21.0882 19.5393 19.1856 19.6997 17.306C19.8831 15.22 20.0665 13.157 20.2498 11.0711C20.3645 9.74161 20.4791 8.43504 20.5937 7.10554C20.6166 6.73879 20.8458 6.55541 21.1209 6.57833C21.4189 6.60125 21.5793 6.8534 21.5335 7.19723C21.2814 9.99376 21.0521 12.7903 20.8 15.5868C20.5937 18.0853 20.3645 20.6068 20.1352 23.1053C19.9519 25.0996 20.7312 26.6124 22.3358 27.7586C24.3759 29.2027 26.6452 30.0279 29.1208 30.3029C29.8085 30.3717 30.4961 30.3946 31.2067 30.4175C32.2841 30.4634 33.1093 31.0823 33.3385 32.045C33.5677 33.0307 33.0863 33.9247 32.1236 34.4289C30.4961 35.3 28.754 35.4375 26.9661 35.2771C25.2928 35.1166 23.6424 34.8416 21.969 34.6123C19.7456 34.3143 17.545 34.3373 15.4132 35.1625C15.0923 35.3 14.7256 35.3458 14.3817 35.4146C14.0608 35.4375 13.7399 35.4375 13.419 35.4375Z" fill="#00B294"/>
<path id="Vector_2" d="M12.7311 25.3288C12.6165 25.9018 12.5248 26.4749 12.3873 27.025C12.3185 27.323 12.0664 27.4376 11.7913 27.3688C11.5391 27.3001 11.3787 27.0479 11.4704 26.7958C11.9747 25.2371 11.5621 23.793 10.9202 22.3718C10.3472 21.0652 9.70535 19.7586 9.17814 18.4062C8.03203 15.4722 7.66527 12.4464 7.98618 9.30605C8.05495 8.59546 8.19248 7.88487 8.28417 7.15135C8.28417 7.08259 8.30709 7.01382 8.33002 6.96798C8.39878 6.66999 8.65093 6.50953 8.90307 6.5783C9.17814 6.64706 9.31568 6.87629 9.26983 7.1972C8.97184 8.733 8.81138 10.2688 8.85723 11.8275C8.90307 14.5323 9.56782 17.0767 10.691 19.5294C11.2182 20.6755 11.7454 21.8216 12.2268 22.9678C12.5019 23.7013 12.6623 24.4806 12.7311 25.3288Z" fill="#00B294"/>
<path id="Vector_3" d="M11.2185 12.1714C11.4706 12.1714 11.6769 12.3548 11.6999 12.6298C11.7686 13.8676 11.9978 15.0825 12.3188 16.2974C12.3875 16.5725 12.2041 16.8246 11.952 16.8705C11.6999 16.9163 11.4477 16.7788 11.3789 16.4808C11.1956 15.6556 11.0351 14.8304 10.8747 14.0052C10.8059 13.5696 10.783 13.1341 10.76 12.6986C10.7371 12.3777 10.9434 12.1714 11.2185 12.1714Z" fill="#00B294"/>
<path id="Vector_4" d="M16.1237 30.1424C15.3443 30.1195 14.7025 29.8215 14.1753 29.2485C13.969 29.0192 13.969 28.7671 14.1524 28.5608C14.3358 28.3545 14.6567 28.3545 14.863 28.5837C15.5277 29.3401 16.6738 29.386 17.3844 28.6296C17.5907 28.4233 17.8887 28.4462 18.0721 28.6525C18.2555 28.8359 18.2555 29.1338 18.0492 29.3401C17.499 29.8674 16.8801 30.1195 16.1237 30.1424Z" fill="#00B294"/>
<path id="Vector_5" d="M10.7597 10.0625C10.7597 9.76453 10.989 9.55823 11.2411 9.55823C11.5162 9.55823 11.7225 9.81037 11.6996 10.0854C11.6996 10.3834 11.4703 10.6127 11.1953 10.5897C10.9202 10.5897 10.7368 10.3605 10.7597 10.0625Z" fill="#00B294"/>
</g>
</g>
</svg>
