<svg width="42" height="42" viewBox="0 0 42 42" fill="none" xmlns="http://www.w3.org/2000/svg">
<g id="Group 1704">
<rect id="Rectangle 108" width="42" height="42" rx="8" fill="#EFFCFA"/>
<g id="Group">
<path id="Vector" d="M14.7077 35.4375C14.639 35.4146 14.5473 35.3917 14.4786 35.3687C13.6765 35.1167 13.1036 34.4292 13.0348 33.6042C13.0119 33.2146 13.1723 32.8708 13.4931 32.6875C13.9973 32.4125 14.5473 32.1375 15.0973 31.9542C15.8306 31.7021 16.564 31.5188 17.2973 31.2896C17.9848 31.0604 18.1911 30.7625 18.1911 30.0292C18.1911 29.2729 17.9848 28.5396 17.7098 27.8521C17.3431 26.9813 16.9536 26.1333 16.5869 25.2854C15.9452 23.8188 15.4181 22.3063 15.0056 20.7708C14.9598 20.6104 14.8911 20.5417 14.7306 20.5188C13.9286 20.4271 13.3786 19.9688 13.1265 19.2125C12.8744 18.4333 13.0806 17.7688 13.6536 17.2188C13.7911 17.0813 13.8369 16.9667 13.8598 16.7604C13.9973 15.6833 14.4786 14.8125 15.3265 14.125C15.4181 14.0563 15.5098 13.9646 15.5556 13.85C16.289 11.8792 17.4806 10.2292 18.9702 8.7625C19.7036 8.05208 20.5056 7.43333 21.2848 6.79167C21.4223 6.63125 21.6515 6.5625 21.8348 6.5625C25.2723 6.5625 28.6869 6.5625 32.1015 6.5625C32.6515 6.5625 32.8577 6.81458 32.6744 7.36458C31.9869 9.47292 30.9556 11.3521 29.2827 12.8187C28.0452 13.9187 26.6015 14.6292 25.0661 15.2021C24.6077 15.3625 24.1723 15.5229 23.714 15.7063C22.8661 16.05 22.2702 16.6458 21.9265 17.4938C21.8806 17.5854 21.8806 17.7458 21.9494 17.8146C22.6827 18.9604 22.9348 20.2438 22.889 21.5729C22.8431 22.3979 22.7515 23.2 22.6827 24.025C22.4765 26.5 22.8661 28.8833 23.9202 31.1521C24.2181 31.7708 24.4702 32.4125 24.4473 33.1229C24.4244 34.2688 23.7827 35.0938 22.6598 35.3917C22.6369 35.3917 22.5911 35.4146 22.5681 35.4375C22.2244 35.4375 21.8806 35.4375 21.5598 35.4375C21.4223 35.4146 21.2619 35.3917 21.1244 35.3458C20.5973 35.2313 20.0473 35.0479 19.5202 34.9792C18.3515 34.8188 17.2744 35.3 16.1515 35.4375C15.6931 35.4375 15.189 35.4375 14.7077 35.4375ZM21.1931 16.7833C21.2161 16.7375 21.2619 16.6917 21.2848 16.6458C21.789 15.7292 22.5452 15.1104 23.5306 14.7438C24.0348 14.5604 24.539 14.3542 25.0661 14.1708C27.9306 13.1167 30.0619 11.2833 31.2536 8.44167C31.3681 8.14375 31.4827 7.84583 31.6202 7.54792C31.5056 7.54792 31.4598 7.525 31.3911 7.525C28.2744 7.525 25.1577 7.525 22.0181 7.525C21.8806 7.525 21.7431 7.59375 21.6515 7.6625C20.8723 8.32708 20.0931 8.99167 19.3598 9.70208C18.0994 10.9854 17.0911 12.4292 16.4723 14.125C16.3806 14.4 16.2431 14.6063 15.9911 14.7896C15.7619 14.9729 15.5327 15.2021 15.3723 15.4313C15.0973 15.7979 14.914 16.1875 14.8681 16.6458C14.9369 16.6458 14.9598 16.6687 15.0056 16.6687C15.8994 16.7375 16.564 17.2646 16.7931 18.0667C17.0223 18.8688 16.7473 19.6479 16.014 20.1979C15.8765 20.2896 15.8765 20.3813 15.9223 20.4958C16.3806 21.8021 16.7702 23.1313 17.2744 24.4375C17.664 25.4917 18.1911 26.5 18.6036 27.5312C18.9244 28.3333 19.1536 29.1812 19.1306 30.075C19.1077 31.175 18.6494 31.8167 17.6411 32.1833C16.9077 32.4354 16.1744 32.6187 15.4411 32.8479C15.0286 32.9854 14.6161 33.1688 14.2036 33.3292C13.9744 33.4208 13.9515 33.6042 14.0431 33.8104C14.2265 34.2458 14.5702 34.4521 15.0286 34.475C15.8994 34.5208 16.7702 34.3833 17.6181 34.1771C18.6036 33.925 19.589 33.925 20.5744 34.2229C21.0786 34.3604 21.6286 34.4521 22.1556 34.475C22.9119 34.5208 23.4619 33.9479 23.5077 33.1917C23.5306 32.6417 23.3473 32.1604 23.1181 31.6792C21.8348 28.9062 21.4452 25.9958 21.8348 22.9708C21.9494 22.0312 22.0181 21.0688 21.8348 20.1292C21.5598 18.6625 20.7119 17.5625 19.5661 16.6458C19.2681 16.4167 19.1994 16.1417 19.3827 15.8896C19.5661 15.6375 19.8411 15.6375 20.139 15.8667C20.5056 16.1646 20.8265 16.4625 21.1931 16.7833ZM15.8994 18.5938C15.8994 18.0667 15.4869 17.6313 14.9369 17.6083C14.4098 17.6083 13.9744 18.0438 13.9744 18.5708C13.9744 19.0979 14.3869 19.5104 14.914 19.5333C15.464 19.5562 15.8994 19.1438 15.8994 18.5938Z" fill="#00B294"/>
<path id="Vector_2" d="M11.1097 14.3771C11.5681 14.3771 11.7972 14.7667 11.6139 15.0875C11.5681 15.1792 11.4993 15.2479 11.4306 15.3167C9.6889 17.2187 9.71182 20.0146 11.4764 21.9167C11.6597 22.1229 11.7743 22.3062 11.6368 22.5812C11.5222 22.7646 11.3618 22.8562 11.1327 22.8104C11.0181 22.7875 10.9035 22.7187 10.8347 22.6271C8.65765 20.4958 8.63474 16.7604 10.7889 14.5833C10.9035 14.4917 11.041 14.4229 11.1097 14.3771Z" fill="#00B294"/>
<path id="Vector_3" d="M13.5163 23.8876C13.8371 23.8876 14.1121 23.8876 14.3642 23.8876C14.5933 23.8876 14.7996 23.9334 14.9142 24.1626C15.0058 24.3688 14.96 24.5521 14.8225 24.7355C14.3642 25.3313 13.9288 25.9271 13.4933 26.523C13.2871 26.798 12.9892 26.8667 12.76 26.6834C12.5308 26.5001 12.5079 26.2251 12.7142 25.9501C12.9663 25.6063 13.2183 25.2626 13.5392 24.8501C13.2183 24.8501 12.9433 24.8501 12.6913 24.8501C12.4621 24.8501 12.2558 24.8042 12.1413 24.5751C12.0267 24.3459 12.1183 24.1626 12.2558 23.9792C12.7142 23.3834 13.1496 22.7646 13.6308 22.1917C13.7225 22.0771 13.9746 21.9626 14.135 22.0084C14.2725 22.0313 14.4329 22.2376 14.4788 22.3751C14.5246 22.4896 14.4329 22.673 14.3413 22.8105C14.0663 23.1542 13.8142 23.4751 13.5163 23.8876Z" fill="#00B294"/>
<path id="Vector_4" d="M13.5158 11.375C13.8596 11.375 14.1117 11.375 14.3867 11.375C14.6158 11.375 14.7992 11.4208 14.9137 11.65C15.0283 11.8562 14.9596 12.0395 14.8221 12.2229C14.3637 12.8187 13.9283 13.4145 13.47 14.0333C13.2637 14.2854 12.9887 14.3541 12.7596 14.1937C12.5304 14.0333 12.5075 13.7354 12.6908 13.4833C12.9429 13.1395 13.2179 12.7729 13.5158 12.3833C13.195 12.3833 12.92 12.3833 12.645 12.3833C12.4158 12.3833 12.2325 12.3375 12.1179 12.1312C12.0033 11.902 12.0721 11.7187 12.2096 11.5354C12.645 10.9625 13.0804 10.3666 13.5387 9.77079C13.7679 9.47288 14.02 9.40412 14.2721 9.58746C14.5242 9.77079 14.5471 10.0458 14.3179 10.3437C14.0658 10.6416 13.8137 10.9854 13.5158 11.375Z" fill="#00B294"/>
<path id="Vector_5" d="M11.0869 18.5938C11.1098 17.5855 11.4307 16.7146 12.1182 15.9813C12.3702 15.7063 12.6682 15.6605 12.8744 15.8667C13.1036 16.073 13.0807 16.348 12.8286 16.6459C11.7973 17.7917 11.7973 19.3959 12.8057 20.5417C12.8286 20.5875 12.8744 20.6105 12.8973 20.6563C13.0807 20.8855 13.0577 21.1605 12.8744 21.3438C12.6682 21.5271 12.3932 21.5271 12.1869 21.298C11.4765 20.5417 11.1327 19.625 11.0869 18.5938Z" fill="#00B294"/>
<path id="Vector_6" d="M25.043 10.0459C24.9971 10.1146 24.9284 10.275 24.7909 10.3667C23.2097 11.375 22.0867 12.7959 21.193 14.423C21.0784 14.6292 20.918 14.7896 20.6888 14.7209C20.5284 14.675 20.368 14.5375 20.2992 14.3771C20.2534 14.2855 20.2763 14.1021 20.3451 13.9875C21.2847 12.2688 22.4534 10.7792 24.1034 9.6792C24.218 9.61045 24.3326 9.5417 24.4472 9.49587C24.7222 9.38129 25.043 9.61045 25.043 10.0459Z" fill="#00B294"/>
<path id="Vector_7" d="M20.7115 22.4208C20.7115 22.6042 20.7344 22.7417 20.7344 22.8792C20.7344 23.2 20.5282 23.4062 20.2532 23.4062C19.9782 23.4062 19.7948 23.2229 19.7719 22.9021C19.6802 22.1687 19.6115 21.4125 19.4511 20.6792C19.3594 20.2437 19.1302 19.8312 18.924 19.4187C18.7636 19.0979 18.7865 18.8229 19.0386 18.6854C19.2907 18.525 19.5657 18.6167 19.749 18.9146C20.2761 19.7625 20.5052 20.6792 20.6427 21.6417C20.6657 21.9167 20.6886 22.1917 20.7115 22.4208Z" fill="#00B294"/>
<path id="Vector_8" d="M20.7349 31.8167C20.7349 31.3355 20.8953 31.1063 21.2161 31.1063C21.5369 31.1063 21.6974 31.3584 21.6974 31.8397C21.6974 31.9542 21.6974 32.0688 21.6745 32.1834C21.6286 32.4126 21.4224 32.573 21.1932 32.573C20.9411 32.5501 20.7578 32.3667 20.7349 32.1147C20.7349 32.0001 20.7349 31.9084 20.7349 31.8167Z" fill="#00B294"/>
</g>
</g>
</svg>
