<svg width="42" height="42" viewBox="0 0 42 42" fill="none" xmlns="http://www.w3.org/2000/svg">
<g id="Group 1671">
<rect id="Rectangle 100" width="42" height="42" rx="8" fill="#EFFCFA"/>
<g id="Group">
<path id="Vector" d="M11.4093 33.6C11.0732 33.395 11.0085 33.2788 11.0732 32.8686C11.1766 32.2397 11.2865 31.6108 11.4093 30.9819C11.474 30.6606 11.7196 30.5034 12.004 30.5717C12.2626 30.6332 12.4048 30.8998 12.3466 31.2075C12.2626 31.6518 12.1786 32.0961 12.0945 32.5541C15.6047 32.5541 19.1019 32.5541 22.6121 32.5541C22.6185 32.5131 22.6315 32.4721 22.6315 32.4379C22.625 31.1801 22.6638 29.9223 22.5992 28.6713C22.5151 27.1537 22.0109 25.8139 20.9184 24.768C20.6211 24.4877 20.6211 24.4877 20.2849 24.7133C18.992 25.5883 17.3565 25.4653 16.193 24.3989C16.1477 24.3579 16.096 24.31 16.0443 24.269C15.1199 24.8774 14.4217 25.7045 13.8722 26.6752C13.827 26.7573 13.7882 26.8393 13.7365 26.9213C13.5749 27.2016 13.2969 27.2973 13.0577 27.1538C12.8121 27.0034 12.741 26.7094 12.8961 26.4223C13.3228 25.6088 13.8399 24.8705 14.4928 24.2485C14.7902 23.9614 15.1134 23.7084 15.4495 23.4213C15.0423 22.5737 14.9259 21.6645 15.1845 20.7143C15.4431 19.7641 15.999 19.06 16.82 18.5473C16.736 18.3012 16.6519 18.0551 16.5744 17.809C15.999 15.8745 15.9085 13.9399 16.6455 12.019C17.7379 9.16839 20.4594 7.268 23.3684 7.35687C24.2734 7.38421 25.1267 7.69183 25.9606 8.0473C27.1371 8.54632 28.2878 9.10004 29.4708 9.57855C29.9556 9.77679 30.4792 9.85882 30.9964 9.95453C31.423 10.0366 31.6234 10.351 31.4295 10.7612C30.9123 11.8481 30.2724 12.8325 29.3609 13.5981C29.251 13.6938 29.2251 13.7758 29.251 13.9194C29.335 14.4116 29.5031 14.8627 29.7294 15.3002C30.1431 16.1 30.4986 16.9409 30.9188 17.7338C31.3455 18.5336 30.6215 19.395 29.9556 19.3539C29.8069 19.3471 29.6518 19.3539 29.4708 19.3539C29.4708 19.4702 29.4708 19.5659 29.4708 19.6547C29.4708 20.4819 29.4708 21.309 29.4708 22.143C29.4708 22.9838 29.0054 23.4829 28.2038 23.4829C27.4604 23.4897 26.717 23.4829 25.9736 23.4829C25.8443 23.4829 25.7602 23.5034 25.6827 23.6469C25.1073 24.7817 24.3251 25.7455 23.3943 26.5727C23.2521 26.6957 23.2262 26.7983 23.2779 26.9829C23.5106 27.7621 23.5882 28.5688 23.5882 29.3823C23.5882 30.558 23.5817 31.7407 23.5947 32.9164C23.5947 33.2309 23.5106 33.4633 23.2262 33.5932C19.2959 33.6 15.3526 33.6 11.4093 33.6ZM30.2401 10.9184C29.7358 10.7407 29.2575 10.6039 28.792 10.4057C27.6608 9.92718 26.5489 9.40082 25.4176 8.9223C24.6936 8.61468 23.9437 8.34125 23.1422 8.36859C20.6275 8.47113 18.7722 9.71527 17.6668 12.0942C16.7554 14.0561 16.9622 16.0522 17.6733 18.0346C17.725 18.185 17.8155 18.1508 17.9254 18.1508C18.3521 18.1645 18.7916 18.1098 19.1924 18.2192C19.6643 18.3422 20.1104 18.602 20.5952 18.8139C20.7439 18.6088 20.9249 18.3491 21.0994 18.103C20.5564 17.1323 20.5887 16.1479 21.1705 15.3823C21.7523 14.6166 22.6509 14.3637 23.5947 14.6782C23.6658 14.6987 23.7951 14.6508 23.8468 14.5893C24.1635 14.2133 24.4674 13.8237 24.7647 13.434C24.9263 13.2289 25.1073 13.1469 25.3594 13.2016C25.6697 13.27 25.98 13.3178 26.2903 13.3657C27.1178 13.4955 27.9129 13.4682 28.624 12.894C29.3092 12.3676 29.8069 11.6772 30.2401 10.9184ZM28.3137 14.2748C28.0939 14.3295 27.887 14.3911 27.6866 14.4252C26.9755 14.5483 26.2709 14.4047 25.5663 14.309C25.4758 14.2953 25.3465 14.3432 25.2883 14.4116C24.9457 14.8217 24.6225 15.2455 24.2864 15.6625C24.0278 15.9838 23.8274 16.018 23.4912 15.7856C23.1745 15.5668 22.8319 15.5121 22.4763 15.642C21.6554 15.9291 21.4097 17.0229 22.0368 17.6791C22.3988 18.062 22.7802 18.4106 23.1486 18.7866C23.4395 19.0805 23.362 19.518 23.0129 19.6616C22.806 19.7436 22.6315 19.6752 22.4828 19.5248C22.2565 19.3061 22.0368 19.0873 21.804 18.8549C21.6424 19.0873 21.5002 19.2924 21.3451 19.4907C21.2416 19.6205 21.2546 19.7094 21.3321 19.8461C21.7329 20.5571 21.8945 21.3227 21.7976 22.1498C21.7329 22.7172 21.5325 23.2368 21.2481 23.7221C21.9204 24.2621 22.4375 24.9389 22.8319 25.7182C22.8771 25.6909 22.903 25.6772 22.9288 25.6498C23.7757 24.8637 24.4868 23.9614 24.9716 22.8813C25.1138 22.5668 25.3013 22.437 25.6309 22.4438C26.4649 22.4575 27.2923 22.4506 28.1262 22.4506C28.4882 22.4506 28.5141 22.4233 28.5141 22.0473C28.5141 21.0082 28.5141 19.9623 28.5141 18.9233C28.5141 18.5131 28.6886 18.3286 29.0765 18.3217C29.3286 18.3149 29.5742 18.3217 29.8263 18.3217C29.9039 18.3217 29.9879 18.2944 30.0849 18.2739C30.0332 18.1508 29.9944 18.0688 29.9621 17.9799C29.4385 16.7426 28.6304 15.6352 28.3137 14.2748ZM18.4167 24.269C19.7548 24.2758 20.8473 23.1342 20.8538 21.726C20.8602 20.3178 19.7807 19.1489 18.4555 19.142C17.1109 19.1352 16.012 20.2768 16.012 21.6987C16.0055 23.1137 17.085 24.2621 18.4167 24.269Z" fill="#00B294"/>
<path id="Vector_2" d="M11.0663 19.3266C10.7108 19.3813 10.3811 19.4428 10.045 19.4907C9.6765 19.5454 9.40499 19.2788 9.45024 18.9164C9.48257 18.6772 9.63771 18.52 9.88982 18.4789C10.3811 18.3969 10.8789 18.3217 11.3766 18.2397C11.7063 18.185 11.939 18.3764 11.9843 18.7387C12.0101 18.9643 12.036 19.1967 12.0619 19.4496C12.3269 19.4223 12.5855 19.4018 12.8376 19.3745C12.9733 19.3608 13.1091 19.3403 13.2448 19.3403C13.5357 19.3334 13.7426 19.5043 13.7749 19.7846C13.8072 20.0649 13.6327 20.311 13.3353 20.352C12.9539 20.4067 12.5661 20.434 12.1782 20.475C12.0231 20.4887 11.8744 20.5092 11.7192 20.5229C11.396 20.5434 11.2021 20.3793 11.1504 20.0375C11.1245 19.8051 11.0987 19.5795 11.0663 19.3266Z" fill="#00B294"/>
<path id="Vector_3" d="M12.9538 15.8813C13.18 15.7787 13.3675 15.6899 13.5614 15.6079C13.8782 15.4711 14.1109 15.5668 14.2596 15.895C14.4794 16.394 14.6992 16.8998 14.906 17.4125C15.0353 17.7202 14.9383 18.0004 14.6862 18.1303C14.4277 18.2534 14.1691 18.144 14.0269 17.8364C13.8653 17.4741 13.7101 17.1118 13.5485 16.7289C13.3287 16.8315 13.1218 16.9272 12.915 17.0092C12.5853 17.1459 12.3461 17.0434 12.2104 16.6948C12.0294 16.2231 11.8548 15.7446 11.6803 15.2661C11.5639 14.9448 11.6674 14.6782 11.9259 14.562C12.191 14.4457 12.4496 14.5756 12.5788 14.9037C12.7146 15.2182 12.8245 15.5395 12.9538 15.8813Z" fill="#00B294"/>
<path id="Vector_4" d="M11.9713 28.8218C11.9778 28.5415 12.1911 28.3228 12.4497 28.3228C12.7147 28.3228 12.9345 28.5688 12.9281 28.8491C12.9216 29.1294 12.7083 29.3413 12.4432 29.3413C12.1782 29.3413 11.9649 29.1089 11.9713 28.8218Z" fill="#00B294"/>
<path id="Vector_5" d="M18.4295 23.2437C17.6279 23.2437 16.988 22.5669 16.9815 21.7192C16.975 20.8647 17.6279 20.1675 18.436 20.1675C19.2246 20.1675 19.884 20.8579 19.8905 21.6919C19.8905 22.5464 19.2376 23.2437 18.4295 23.2437ZM18.4231 21.1929C18.1515 21.1997 17.9382 21.439 17.9512 21.7261C17.9576 22.0063 18.1774 22.2183 18.436 22.2114C18.6946 22.2046 18.9079 21.979 18.9143 21.7056C18.9208 21.4321 18.6881 21.186 18.4231 21.1929Z" fill="#00B294"/>
</g>
</g>
</svg>
