<svg width="90" height="73" viewBox="0 0 90 73" fill="none" xmlns="http://www.w3.org/2000/svg">
<path id="&#216;&#172;&#216;&#177;&#216;&#167;&#216;&#173; &#217;&#136; &#217;&#129;&#217;&#136;&#217;&#130; &#216;&#170;&#216;&#174;&#216;&#181;&#216;&#181; &#216;&#175;&#219;&#140;&#216;&#179;&#218;&#169; &#218;&#169;&#217;&#133;&#216;&#177; &#217;&#136; &#216;&#179;&#216;&#170;&#217;&#136;&#217;&#134; &#217;&#129;&#217;&#130;&#216;&#177;&#216;&#167;&#216;&#170; &#218;&#169;&#219;&#140;&#216;&#179;&#216;&#170; &#216;&#159;" opacity="0.15" d="M40.2108 11.8002L40.2114 11.7997L40.2116 11.7995L40.2117 11.7994L41.4786 10.6049L40.1081 9.52895L31.5626 2.82016L30.6082 2.07089L29.6761 2.84767C16.3539 13.9493 1.5 30.4767 1.49999 50.9615C1.49999 62.3103 10.7209 71.5 22.0909 71.5C33.3072 71.5 42.3182 62.2821 42.3182 50.9615C42.3182 42.1404 36.2635 35.3691 28.3848 32.8554C29.7425 26.8213 32.54 21.7008 35.0978 17.9982C36.4665 16.0168 37.7567 14.4557 38.7006 13.394C39.1722 12.8635 39.5565 12.4587 39.8197 12.1895C39.9512 12.055 40.0524 11.9544 40.119 11.8891C40.1524 11.8565 40.177 11.8326 40.1925 11.8177L40.2088 11.8022L40.2108 11.8002ZM86.3927 11.8002L86.3932 11.7997L86.3934 11.7995L86.3935 11.7994L87.6604 10.6049L86.2899 9.52896L77.7445 2.82017L76.7966 2.07601L75.8656 2.84128C62.3381 13.9617 47.8636 30.4864 47.8636 50.9615C47.8636 62.2724 56.6834 71.5 68.0909 71.5C79.2884 71.5 88.5 62.301 88.5 50.9616C88.5 42.1327 82.4364 35.3626 74.4036 32.8525C75.8402 26.8213 78.6766 21.7036 81.2537 18.0028C82.6343 16.0202 83.9308 14.458 84.8781 13.3956C85.3514 12.8647 85.7367 12.4596 86.0004 12.1902C86.1323 12.0556 86.2337 11.9549 86.3005 11.8894C86.3339 11.8567 86.3586 11.8328 86.3742 11.8179L86.3905 11.8022L86.3927 11.8002Z" stroke="#EDEDED" stroke-width="3"/>
</svg>
