<svg width="88" height="71" viewBox="0 0 88 71" fill="none" xmlns="http://www.w3.org/2000/svg">
<path id="&#216;&#172;&#216;&#177;&#216;&#167;&#216;&#173; &#217;&#136; &#217;&#129;&#217;&#136;&#217;&#130; &#216;&#170;&#216;&#174;&#216;&#181;&#216;&#181; &#216;&#175;&#219;&#140;&#216;&#179;&#218;&#169; &#218;&#169;&#217;&#133;&#216;&#177; &#217;&#136; &#216;&#179;&#216;&#170;&#217;&#136;&#217;&#134; &#217;&#129;&#217;&#130;&#216;&#177;&#216;&#167;&#216;&#170; &#218;&#169;&#219;&#140;&#216;&#179;&#216;&#170; &#216;&#159;" d="M38.8678 10.1035L38.8681 10.1032L38.8682 10.1031L39.713 9.30661L38.7993 8.58932L30.2539 1.88053L29.6176 1.38102L28.9962 1.89887C15.6905 12.9868 1 29.3841 1 49.6286C1 60.7 9.99577 69.6671 21.0909 69.6671C32.023 69.6671 40.8182 60.6811 40.8182 49.6286C40.8182 40.9019 34.7178 34.21 26.7983 31.8651C28.1339 25.5519 31.0424 20.2086 33.6864 16.3811C35.0686 14.3802 36.3719 12.8031 37.3269 11.7288C37.8042 11.192 38.1939 10.7814 38.4622 10.5071C38.5963 10.3699 38.7 10.2669 38.769 10.1992C38.8035 10.1653 38.8294 10.1403 38.846 10.1243L38.864 10.1071L38.8677 10.1036L38.8678 10.1035ZM85.0497 10.1035L85.05 10.1032L85.05 10.1031L85.8948 9.30661L84.9811 8.58932L76.4357 1.88053L75.8038 1.38442L75.1832 1.89461C61.6799 12.9951 47.3636 29.3906 47.3636 49.6286C47.3636 60.6747 55.9708 69.6671 67.0909 69.6671C78.0105 69.6671 87 60.6938 87 49.6286C87 40.8965 80.8932 34.2055 72.8109 31.8631C74.2293 25.5518 77.1789 20.2105 79.8434 16.3842C81.2373 14.3825 82.5467 12.8046 83.5049 11.7299C83.9838 11.1928 84.3744 10.782 84.6432 10.5075C84.7775 10.3703 84.8814 10.2672 84.9506 10.1994C84.9851 10.1655 85.011 10.1405 85.0277 10.1244L85.0458 10.1071L85.0495 10.1036L85.0497 10.1035Z" stroke="#FFEA76" stroke-width="2"/>
</svg>
