<svg width="42" height="42" viewBox="0 0 42 42" fill="none" xmlns="http://www.w3.org/2000/svg">
<g id="Group 1706">
<rect id="Rectangle 104" width="42" height="42" rx="8" fill="#EFFCFA"/>
<g id="Group">
<path id="Vector" d="M6.5625 13.1978C6.60826 12.9919 6.65402 12.786 6.69978 12.6029C7.18027 11.0928 8.187 10.109 9.74287 9.78863C11.2987 9.4683 12.58 9.99455 13.5868 11.2072C13.724 11.3903 13.8385 11.4131 14.0215 11.2987C14.502 11.0699 15.0282 10.8869 15.463 10.6123C16.6756 9.83439 17.2934 8.69037 17.362 7.24891C17.4078 6.74554 17.5908 6.5625 18.0942 6.5625C20.0161 6.5625 21.9152 6.5625 23.8372 6.5625C24.3634 6.5625 24.5236 6.74554 24.5693 7.27179C24.6837 8.80477 25.2786 10.0174 26.6972 10.7267C27.7039 11.2301 28.7336 11.6648 29.7632 12.1224C31.0216 12.6944 32.2571 13.3351 33.241 14.3418C34.202 15.3028 34.7511 16.4697 34.8426 17.8196C34.9799 19.4899 35.0485 21.1602 35.1629 22.8304C35.1858 23.2194 34.957 23.4711 34.6367 23.494C34.3164 23.5168 34.0876 23.288 34.0418 22.8991C34.0418 22.8533 34.0418 22.8304 34.0418 22.7847C33.996 21.9839 33.9503 21.183 33.9045 20.4051C33.8588 19.5357 33.813 18.6662 33.7215 17.7968C33.5842 16.4239 32.852 15.4172 31.7766 14.5935C30.5869 13.6783 29.214 13.1063 27.8641 12.5343C27.2692 12.2826 26.6743 12.0538 26.1023 11.7335C24.638 10.8869 23.7914 9.58271 23.494 7.91244C23.494 7.86668 23.494 7.8438 23.4711 7.79804C23.4711 7.77516 23.4482 7.75228 23.4253 7.70652C21.7779 7.70652 20.1305 7.70652 18.4603 7.70652C18.0942 10.2005 16.5612 11.6877 14.2503 12.4199C14.7079 14.2732 14.2503 15.829 12.6716 16.9044C11.2987 17.8654 9.81151 17.7968 8.37005 16.9959C7.93532 17.7968 7.43195 31.3648 7.70652 34.2477C8.8963 34.2477 10.0861 34.2477 11.2759 34.2477C11.2987 33.813 11.3216 33.4011 11.3445 32.9893C11.436 31.5936 11.5275 30.1979 11.6191 28.8022C11.6191 28.6878 11.5962 28.5734 11.5733 28.4819C11.047 26.743 10.5208 25.0041 9.99455 23.2652C9.97167 23.1736 9.94879 23.105 9.92591 23.0135C9.85727 22.6931 10.0174 22.4186 10.3149 22.3271C10.6123 22.2355 10.8869 22.3728 11.0013 22.6931C11.2301 23.3567 11.436 24.0202 11.6419 24.7066C12.3512 27.1319 13.0376 29.5572 13.724 32.0054C13.9071 32.669 13.9529 33.4011 14.0673 34.0876C14.0673 34.1333 14.0901 34.202 14.0901 34.2706C16.1951 34.2706 18.2772 34.2706 20.428 34.2706C20.428 34.1562 20.428 34.0647 20.428 33.9503C20.428 30.3581 20.428 26.7658 20.428 23.1736C20.428 23.0592 20.428 22.9677 20.428 22.8533C20.4509 22.5559 20.7026 22.3499 20.9771 22.3499C21.2746 22.3499 21.5262 22.5559 21.5491 22.8533C21.5491 22.9448 21.5491 23.0592 21.5491 23.1736C21.5491 26.7658 21.5491 30.3352 21.5491 33.9274C21.5491 34.0418 21.5491 34.1562 21.5491 34.2706C23.677 34.2706 25.7591 34.2706 27.8412 34.2706C27.9785 33.5156 28.0471 32.7376 28.2531 32.0283C28.9852 29.3513 29.7861 26.6743 30.5411 23.9973C30.6555 23.6084 30.7699 23.2194 30.9072 22.8533C31.0445 22.4415 31.2962 22.2584 31.6394 22.3499C31.9826 22.4415 32.097 22.7618 31.9826 23.1736C31.4563 24.9125 30.9301 26.6514 30.4038 28.3904C30.3352 28.5963 30.3352 28.8022 30.3352 29.031C30.4267 30.6784 30.5182 32.3487 30.6326 33.996C30.6326 34.0876 30.6555 34.1791 30.6555 34.2935C31.8453 34.2935 33.0351 34.2935 34.2248 34.2935C34.2248 34.1791 34.2477 34.0876 34.2477 33.996C34.2477 32.0741 34.2477 30.1293 34.2706 28.2073C34.2706 27.7726 34.4536 27.5209 34.7969 27.498C35.0943 27.4751 35.3231 27.6582 35.3689 27.9556C35.3917 28.0471 35.3917 28.1616 35.3917 28.2531C35.3917 30.4496 35.3689 32.6232 35.3689 34.8197C35.3689 35.1172 35.2087 35.3002 34.9799 35.4375C33.3096 35.4375 31.6394 35.4375 29.9691 35.4375C29.6717 35.3002 29.5573 35.0714 29.5573 34.7282C29.5344 33.996 29.4886 33.241 29.4657 32.5088C29.4657 32.4173 29.4429 32.3258 29.4429 32.2114C29.1683 33.0351 29.0539 33.8588 29.0539 34.6824C29.0539 35.0257 28.9395 35.2545 28.642 35.3917C23.5855 35.3917 18.506 35.3917 13.4495 35.3917C13.1292 35.2545 13.0376 35.0028 13.0376 34.6824C13.0376 33.8359 12.9232 33.0122 12.6716 32.2114C12.6487 32.3029 12.6258 32.3944 12.6258 32.4631C12.58 33.2181 12.5343 33.9503 12.5114 34.7053C12.5114 35.0257 12.397 35.2545 12.0995 35.4146C10.4293 35.4146 8.75901 35.4146 7.08875 35.4146C6.7913 35.2545 6.6769 35.0028 6.6769 34.6596C6.69978 34.2935 6.65402 33.9274 6.63114 33.5613C6.63114 31.7309 6.63114 29.8776 6.63114 28.0471C6.65402 27.9327 6.6769 27.8183 6.6769 27.6811C6.74554 24.638 6.88282 21.6406 7.02011 18.6204C7.04299 18.0256 7.08875 17.4078 7.24891 16.8129C7.36331 16.3553 7.36331 16.0121 7.08875 15.6002C6.83706 15.1655 6.74554 14.6164 6.5625 14.113C6.5625 13.8156 6.5625 13.5181 6.5625 13.1978ZM10.5208 10.8411C8.96494 10.8411 7.70652 12.0995 7.68364 13.6325C7.68364 15.1884 8.91918 16.4468 10.475 16.4697C12.0309 16.4926 13.3122 15.2113 13.3122 13.6554C13.3122 12.1224 12.0538 10.8411 10.5208 10.8411Z" fill="#00B294"/>
<path id="Vector_2" d="M16.1492 20.062C15.8975 20.1535 15.6687 20.245 15.4399 20.3137C15.051 20.451 14.7993 20.3366 14.6391 19.9705C14.4103 19.3985 14.1815 18.8493 13.9756 18.2773C13.8383 17.9112 13.9527 17.6138 14.273 17.4994C14.5705 17.385 14.8679 17.5223 15.0052 17.8655C15.1654 18.2544 15.3255 18.6663 15.4857 19.101C15.7145 19.0095 15.9433 18.9409 16.1721 18.8493C16.6297 18.6892 16.9043 18.8036 17.0415 19.2612C17.2246 19.7646 17.3848 20.2679 17.5449 20.7713C17.6593 21.1603 17.5449 21.4577 17.2017 21.5721C16.8814 21.6636 16.6068 21.5035 16.4695 21.1374C16.4009 20.7942 16.2865 20.451 16.1492 20.062Z" fill="#00B294"/>
<path id="Vector_3" d="M18.7347 16.3553C19.1008 16.3096 19.444 16.2867 19.7872 16.2638C20.1761 16.2409 20.4507 16.424 20.4736 16.7672C20.4965 17.1104 20.2677 17.3621 19.8558 17.3849C19.3524 17.4307 18.8491 17.4993 18.3457 17.5451C17.9339 17.5909 17.6822 17.4078 17.6364 16.996C17.6135 16.7443 17.5907 16.4697 17.5678 16.2409C17.1102 16.2409 16.6754 16.2409 16.2407 16.2409C15.8746 16.2409 15.6229 16.035 15.6001 15.7147C15.5772 15.4172 15.7602 15.1655 16.0577 15.1427C16.7441 15.0969 17.4305 15.0511 18.1398 15.0511C18.4372 15.0511 18.6203 15.28 18.666 15.6232C18.6889 15.8291 18.7118 16.0808 18.7347 16.3553Z" fill="#00B294"/>
<path id="Vector_4" d="M35.3003 25.4616C35.3003 25.759 35.0487 26.0107 34.7512 26.0336C34.4538 26.0336 34.1792 25.759 34.1792 25.4616C34.1792 25.1642 34.4309 24.9125 34.7512 24.9125C35.0487 24.9125 35.3003 25.1642 35.3003 25.4616Z" fill="#00B294"/>
<path id="Vector_5" d="M10.4978 11.9623C11.4359 11.9623 12.191 12.6945 12.191 13.6325C12.191 14.5706 11.4359 15.3486 10.4978 15.3486C9.58262 15.3486 8.80469 14.5935 8.80469 13.6554C8.80469 12.7402 9.55974 11.9852 10.4978 11.9623ZM10.5207 13.1063C10.2233 13.1063 9.97159 13.3351 9.94871 13.6325C9.92582 13.9529 10.1775 14.2046 10.4978 14.2274C10.8182 14.2274 11.0698 13.9758 11.0698 13.6554C11.0698 13.358 10.8182 13.1063 10.5207 13.1063Z" fill="#00B294"/>
</g>
</g>
</svg>
